M48
METRIC,LZ,000.000
;FILE_FORMAT=3:3
;TYPE=PLATED
;Layer: Drill PTH
;EasyEDA v6.4.25, 2021-10-17T02:20:50+08:00
;2ac7491e4d7b47ffaeae1aaf30646eaa,91c7be0e0535418db580a4ece6a21754,10
;Gerber Generator version 0.2
;Holesize 1 = 0.306 mm
T01C0.306
;Holesize 2 = 0.901 mm
T02C0.901
;Holesize 3 = 1.021 mm
T03C1.021
%
G05
G90
T01
X049008Y029265
X055825Y038631
X057094Y038632
X054748Y038450
X051261Y038548
X023255Y031657
X023722Y032270
T02
X010541Y026871
X013081Y026871
X015621Y026871
X018161Y026871
X020701Y026871
X023241Y026871
X025781Y026871
X028321Y026871
X030861Y026871
X033401Y026871
X035941Y026871
X038481Y026871
X038481Y042471
X035941Y042471
X033401Y042471
X030861Y042471
X028321Y042471
X025781Y042471
X023241Y042471
X020701Y042471
X018161Y042471
X015621Y042471
X013081Y042471
X010541Y042471
T03
X045593Y039243
X045593Y036703
X045593Y034163
X045593Y031623
X045593Y029083
X069723Y039243
X069723Y036703
X069723Y034163
X069723Y031623
X069723Y029083
M30
