G04 Layer: TopSolderMaskLayer*
G04 EasyEDA v6.4.25, 2021-10-17T02:20:50+08:00*
G04 2ac7491e4d7b47ffaeae1aaf30646eaa,91c7be0e0535418db580a4ece6a21754,10*
G04 Gerber Generator version 0.2*
G04 Scale: 100 percent, Rotated: No, Reflected: No *
G04 Dimensions in millimeters *
G04 leading zeros omitted , absolute positions ,4 integer and 5 decimal *
%FSLAX45Y45*%
%MOMM*%

%ADD25C,0.6616*%
%ADD26C,1.6764*%
%ADD27R,1.6764X1.6764*%
%ADD28C,1.9016*%

%LPD*%
D25*
X5029197Y3062589D02*
G01*
X5029197Y2875419D01*
X5156197Y3062589D02*
G01*
X5156197Y2875419D01*
X5283197Y3062589D02*
G01*
X5283197Y2875419D01*
X5410197Y3062589D02*
G01*
X5410197Y2875419D01*
X5537197Y3062589D02*
G01*
X5537197Y2875419D01*
X5664197Y3062589D02*
G01*
X5664197Y2875419D01*
X5791197Y3062589D02*
G01*
X5791197Y2875419D01*
X5918197Y3062589D02*
G01*
X5918197Y2875419D01*
X6045197Y3062589D02*
G01*
X6045197Y2875419D01*
X6172197Y3062589D02*
G01*
X6172197Y2875419D01*
X6299197Y3062589D02*
G01*
X6299197Y2875419D01*
X6426197Y3062589D02*
G01*
X6426197Y2875419D01*
X5029197Y4116387D02*
G01*
X5029197Y3929214D01*
X5156197Y4116387D02*
G01*
X5156197Y3929214D01*
X5283197Y4116387D02*
G01*
X5283197Y3929214D01*
X5410197Y4116387D02*
G01*
X5410197Y3929214D01*
X5537197Y4116387D02*
G01*
X5537197Y3929214D01*
X5664197Y4116387D02*
G01*
X5664197Y3929214D01*
X5791197Y4116387D02*
G01*
X5791197Y3929214D01*
X5918197Y4116387D02*
G01*
X5918197Y3929214D01*
X6045197Y4116387D02*
G01*
X6045197Y3929214D01*
X6172197Y4116387D02*
G01*
X6172197Y3929214D01*
X6299197Y4116387D02*
G01*
X6299197Y3929214D01*
X6426197Y4116387D02*
G01*
X6426197Y3929214D01*
D26*
G01*
X4559300Y3924300D03*
G01*
X4559300Y3670300D03*
G01*
X4559300Y3416300D03*
G01*
X4559300Y3162300D03*
D27*
G01*
X4559300Y2908300D03*
D28*
G01*
X1054100Y2687091D03*
G01*
X1308100Y2687091D03*
G01*
X1562100Y2687091D03*
G01*
X1816100Y2687091D03*
G01*
X2070100Y2687091D03*
G01*
X2324100Y2687091D03*
G01*
X2578100Y2687091D03*
G01*
X2832100Y2687091D03*
G01*
X3086100Y2687091D03*
G01*
X3340100Y2687091D03*
G01*
X3594100Y2687091D03*
G01*
X3848100Y2687091D03*
G01*
X3848100Y4247108D03*
G01*
X3594100Y4247108D03*
G01*
X3340100Y4247108D03*
G01*
X3086100Y4247108D03*
G01*
X2832100Y4247108D03*
G01*
X2578100Y4247108D03*
G01*
X2324100Y4247108D03*
G01*
X2070100Y4247108D03*
G01*
X1816100Y4247108D03*
G01*
X1562100Y4247108D03*
G01*
X1308100Y4247108D03*
G01*
X1054100Y4247108D03*
D26*
G01*
X6972300Y3924302D03*
G01*
X6972300Y3670302D03*
G01*
X6972300Y3416302D03*
G01*
X6972300Y3162302D03*
D27*
G01*
X6972300Y2908302D03*
M02*
