G04 Layer: TopPasteMaskLayer*
G04 EasyEDA v6.4.25, 2021-10-17T02:20:50+08:00*
G04 2ac7491e4d7b47ffaeae1aaf30646eaa,91c7be0e0535418db580a4ece6a21754,10*
G04 Gerber Generator version 0.2*
G04 Scale: 100 percent, Rotated: No, Reflected: No *
G04 Dimensions in millimeters *
G04 leading zeros omitted , absolute positions ,4 integer and 5 decimal *
%FSLAX45Y45*%
%MOMM*%

%ADD12C,0.5600*%

%LPD*%
D12*
X5029197Y3062589D02*
G01*
X5029197Y2875419D01*
X5156197Y3062589D02*
G01*
X5156197Y2875419D01*
X5283197Y3062589D02*
G01*
X5283197Y2875419D01*
X5410197Y3062589D02*
G01*
X5410197Y2875419D01*
X5537197Y3062589D02*
G01*
X5537197Y2875419D01*
X5664197Y3062589D02*
G01*
X5664197Y2875419D01*
X5791197Y3062589D02*
G01*
X5791197Y2875419D01*
X5918197Y3062589D02*
G01*
X5918197Y2875419D01*
X6045197Y3062589D02*
G01*
X6045197Y2875419D01*
X6172197Y3062589D02*
G01*
X6172197Y2875419D01*
X6299197Y3062589D02*
G01*
X6299197Y2875419D01*
X6426197Y3062589D02*
G01*
X6426197Y2875419D01*
X5029197Y4116387D02*
G01*
X5029197Y3929214D01*
X5156197Y4116387D02*
G01*
X5156197Y3929214D01*
X5283197Y4116387D02*
G01*
X5283197Y3929214D01*
X5410197Y4116387D02*
G01*
X5410197Y3929214D01*
X5537197Y4116387D02*
G01*
X5537197Y3929214D01*
X5664197Y4116387D02*
G01*
X5664197Y3929214D01*
X5791197Y4116387D02*
G01*
X5791197Y3929214D01*
X5918197Y4116387D02*
G01*
X5918197Y3929214D01*
X6045197Y4116387D02*
G01*
X6045197Y3929214D01*
X6172197Y4116387D02*
G01*
X6172197Y3929214D01*
X6299197Y4116387D02*
G01*
X6299197Y3929214D01*
X6426197Y4116387D02*
G01*
X6426197Y3929214D01*
M02*
