G04 Layer: BottomLayer*
G04 EasyEDA v6.4.25, 2021-10-17T02:20:50+08:00*
G04 2ac7491e4d7b47ffaeae1aaf30646eaa,91c7be0e0535418db580a4ece6a21754,10*
G04 Gerber Generator version 0.2*
G04 Scale: 100 percent, Rotated: No, Reflected: No *
G04 Dimensions in millimeters *
G04 leading zeros omitted , absolute positions ,4 integer and 5 decimal *
%FSLAX45Y45*%
%MOMM*%

%ADD11C,0.2700*%
%ADD13C,0.6100*%
%ADD14C,1.5748*%
%ADD15R,1.5748X1.5748*%
%ADD16C,1.8000*%
%ADD19R,0.8640X0.8065*%

%LPD*%
G36*
X785368Y2578608D02*
G01*
X781456Y2579370D01*
X778205Y2581605D01*
X775970Y2584856D01*
X775208Y2588768D01*
X775208Y4163364D01*
X775970Y4167225D01*
X778205Y4170527D01*
X972972Y4365294D01*
X976274Y4367530D01*
X980135Y4368292D01*
X994918Y4368292D01*
X999236Y4367326D01*
X1002741Y4364583D01*
X1004722Y4360672D01*
X1004874Y4356252D01*
X1003096Y4352137D01*
X999794Y4349242D01*
X992022Y4344924D01*
X980236Y4336389D01*
X969619Y4326432D01*
X960323Y4315206D01*
X952550Y4302912D01*
X946353Y4289755D01*
X941832Y4275937D01*
X939139Y4261612D01*
X938225Y4247083D01*
X939139Y4232554D01*
X941832Y4218279D01*
X946353Y4204462D01*
X952550Y4191254D01*
X960323Y4178960D01*
X969619Y4167784D01*
X980236Y4157827D01*
X992022Y4149242D01*
X1004773Y4142232D01*
X1018286Y4136898D01*
X1032408Y4133291D01*
X1046835Y4131462D01*
X1061364Y4131462D01*
X1075791Y4133291D01*
X1089914Y4136898D01*
X1103426Y4142232D01*
X1116177Y4149242D01*
X1127963Y4157827D01*
X1138580Y4167784D01*
X1147876Y4178960D01*
X1155649Y4191254D01*
X1161846Y4204462D01*
X1166368Y4218279D01*
X1169060Y4232554D01*
X1169974Y4247083D01*
X1169060Y4261612D01*
X1166368Y4275937D01*
X1161846Y4289755D01*
X1155649Y4302912D01*
X1147876Y4315206D01*
X1138580Y4326432D01*
X1127963Y4336389D01*
X1116177Y4344924D01*
X1108405Y4349242D01*
X1105103Y4352137D01*
X1103325Y4356252D01*
X1103477Y4360672D01*
X1105458Y4364583D01*
X1108964Y4367326D01*
X1113282Y4368292D01*
X1248918Y4368292D01*
X1253236Y4367326D01*
X1256741Y4364583D01*
X1258722Y4360672D01*
X1258874Y4356252D01*
X1257096Y4352137D01*
X1253794Y4349242D01*
X1246022Y4344924D01*
X1234236Y4336389D01*
X1223619Y4326432D01*
X1214323Y4315206D01*
X1206550Y4302912D01*
X1200353Y4289755D01*
X1195832Y4275937D01*
X1193139Y4261612D01*
X1192225Y4247083D01*
X1193139Y4232554D01*
X1195832Y4218279D01*
X1200353Y4204462D01*
X1206550Y4191254D01*
X1214323Y4178960D01*
X1223619Y4167784D01*
X1234236Y4157827D01*
X1246022Y4149242D01*
X1258773Y4142232D01*
X1272286Y4136898D01*
X1286408Y4133291D01*
X1300835Y4131462D01*
X1315364Y4131462D01*
X1329791Y4133291D01*
X1343914Y4136898D01*
X1351076Y4139742D01*
X1354937Y4140454D01*
X1358747Y4139641D01*
X1361998Y4137456D01*
X2198065Y3301441D01*
X2204415Y3296208D01*
X2211222Y3292601D01*
X2218588Y3290366D01*
X2226767Y3289554D01*
X2331364Y3289554D01*
X2335530Y3288639D01*
X2338933Y3286150D01*
X2341016Y3282442D01*
X2341422Y3278225D01*
X2340051Y3274161D01*
X2337155Y3271062D01*
X2335936Y3270199D01*
X2328976Y3263239D01*
X2323388Y3255213D01*
X2319223Y3246323D01*
X2316683Y3236823D01*
X2315921Y3228136D01*
X2314752Y3224225D01*
X2312111Y3221075D01*
X2308402Y3219196D01*
X2306218Y3218637D01*
X2297328Y3214471D01*
X2289251Y3208832D01*
X2282291Y3201873D01*
X2276703Y3193846D01*
X2272538Y3184956D01*
X2269998Y3175457D01*
X2269134Y3165652D01*
X2269998Y3155848D01*
X2272538Y3146348D01*
X2276703Y3137458D01*
X2285339Y3125317D01*
X2286101Y3121456D01*
X2286101Y2803347D01*
X2285288Y2799435D01*
X2283053Y2796082D01*
X2279650Y2793898D01*
X2274773Y2791968D01*
X2262022Y2784957D01*
X2250236Y2776372D01*
X2239619Y2766415D01*
X2230323Y2755239D01*
X2222550Y2742946D01*
X2216353Y2729738D01*
X2211832Y2715920D01*
X2209139Y2701645D01*
X2208225Y2687116D01*
X2209139Y2672588D01*
X2211832Y2658262D01*
X2216353Y2644444D01*
X2222550Y2631287D01*
X2230323Y2618994D01*
X2239619Y2607767D01*
X2250236Y2597810D01*
X2254199Y2593848D01*
X2255469Y2589834D01*
X2255062Y2585618D01*
X2252929Y2581960D01*
X2249525Y2579471D01*
X2245410Y2578608D01*
X2148789Y2578608D01*
X2144674Y2579471D01*
X2141270Y2581960D01*
X2139137Y2585618D01*
X2138730Y2589834D01*
X2140000Y2593848D01*
X2143963Y2597810D01*
X2154580Y2607767D01*
X2163876Y2618994D01*
X2171649Y2631287D01*
X2177846Y2644444D01*
X2182368Y2658262D01*
X2185060Y2672588D01*
X2185974Y2687116D01*
X2185060Y2701645D01*
X2182368Y2715920D01*
X2177846Y2729738D01*
X2171649Y2742946D01*
X2163876Y2755239D01*
X2154580Y2766415D01*
X2143963Y2776372D01*
X2132177Y2784957D01*
X2119426Y2791968D01*
X2105914Y2797302D01*
X2091791Y2800959D01*
X2077364Y2802737D01*
X2062835Y2802737D01*
X2048408Y2800959D01*
X2034286Y2797302D01*
X2020773Y2791968D01*
X2008022Y2784957D01*
X1996236Y2776372D01*
X1985619Y2766415D01*
X1976323Y2755239D01*
X1968550Y2742946D01*
X1962353Y2729738D01*
X1957832Y2715920D01*
X1955139Y2701645D01*
X1954225Y2687116D01*
X1955139Y2672588D01*
X1957832Y2658262D01*
X1962353Y2644444D01*
X1968550Y2631287D01*
X1976323Y2618994D01*
X1985619Y2607767D01*
X1996236Y2597810D01*
X2000199Y2593848D01*
X2001469Y2589834D01*
X2001062Y2585618D01*
X1998929Y2581960D01*
X1995525Y2579471D01*
X1991410Y2578608D01*
X1894789Y2578608D01*
X1890674Y2579471D01*
X1887270Y2581960D01*
X1885137Y2585618D01*
X1884730Y2589834D01*
X1886000Y2593848D01*
X1889963Y2597810D01*
X1900580Y2607767D01*
X1909876Y2618994D01*
X1917649Y2631287D01*
X1923846Y2644444D01*
X1928368Y2658262D01*
X1931060Y2672588D01*
X1931974Y2687116D01*
X1931060Y2701645D01*
X1928368Y2715920D01*
X1923846Y2729738D01*
X1917649Y2742946D01*
X1909876Y2755239D01*
X1900580Y2766415D01*
X1889963Y2776372D01*
X1878177Y2784957D01*
X1865426Y2791968D01*
X1851914Y2797302D01*
X1837791Y2800959D01*
X1823364Y2802737D01*
X1808835Y2802737D01*
X1794408Y2800959D01*
X1780286Y2797302D01*
X1766773Y2791968D01*
X1754022Y2784957D01*
X1742236Y2776372D01*
X1731619Y2766415D01*
X1722323Y2755239D01*
X1714550Y2742946D01*
X1708353Y2729738D01*
X1703832Y2715920D01*
X1701139Y2701645D01*
X1700225Y2687116D01*
X1701139Y2672588D01*
X1703832Y2658262D01*
X1708353Y2644444D01*
X1714550Y2631287D01*
X1722323Y2618994D01*
X1731619Y2607767D01*
X1742236Y2597810D01*
X1746199Y2593848D01*
X1747469Y2589834D01*
X1747062Y2585618D01*
X1744929Y2581960D01*
X1741525Y2579471D01*
X1737410Y2578608D01*
X1640789Y2578608D01*
X1636674Y2579471D01*
X1633270Y2581960D01*
X1631137Y2585618D01*
X1630730Y2589834D01*
X1632000Y2593848D01*
X1635963Y2597810D01*
X1646580Y2607767D01*
X1655876Y2618994D01*
X1663649Y2631287D01*
X1669846Y2644444D01*
X1674368Y2658262D01*
X1677060Y2672588D01*
X1677974Y2687116D01*
X1677060Y2701645D01*
X1674368Y2715920D01*
X1669846Y2729738D01*
X1663649Y2742946D01*
X1655876Y2755239D01*
X1646580Y2766415D01*
X1635963Y2776372D01*
X1624177Y2784957D01*
X1611426Y2791968D01*
X1597914Y2797302D01*
X1583791Y2800959D01*
X1569364Y2802737D01*
X1554835Y2802737D01*
X1540408Y2800959D01*
X1526286Y2797302D01*
X1512773Y2791968D01*
X1500022Y2784957D01*
X1488236Y2776372D01*
X1477619Y2766415D01*
X1468323Y2755239D01*
X1460550Y2742946D01*
X1454353Y2729738D01*
X1449832Y2715920D01*
X1447139Y2701645D01*
X1446225Y2687116D01*
X1447139Y2672588D01*
X1449832Y2658262D01*
X1454353Y2644444D01*
X1460550Y2631287D01*
X1468323Y2618994D01*
X1477619Y2607767D01*
X1488236Y2597810D01*
X1492199Y2593848D01*
X1493469Y2589834D01*
X1493062Y2585618D01*
X1490929Y2581960D01*
X1487525Y2579471D01*
X1483410Y2578608D01*
X1386789Y2578608D01*
X1382674Y2579471D01*
X1379270Y2581960D01*
X1377137Y2585618D01*
X1376730Y2589834D01*
X1378000Y2593848D01*
X1381963Y2597810D01*
X1392580Y2607767D01*
X1401876Y2618994D01*
X1409649Y2631287D01*
X1415846Y2644444D01*
X1420368Y2658262D01*
X1423060Y2672588D01*
X1423974Y2687116D01*
X1423060Y2701645D01*
X1420368Y2715920D01*
X1415846Y2729738D01*
X1409649Y2742946D01*
X1401876Y2755239D01*
X1392580Y2766415D01*
X1381963Y2776372D01*
X1370177Y2784957D01*
X1357426Y2791968D01*
X1343914Y2797302D01*
X1329791Y2800959D01*
X1315364Y2802737D01*
X1300835Y2802737D01*
X1286408Y2800959D01*
X1272286Y2797302D01*
X1258773Y2791968D01*
X1246022Y2784957D01*
X1234236Y2776372D01*
X1223619Y2766415D01*
X1214323Y2755239D01*
X1206550Y2742946D01*
X1200353Y2729738D01*
X1195832Y2715920D01*
X1193139Y2701645D01*
X1192225Y2687116D01*
X1193139Y2672588D01*
X1195832Y2658262D01*
X1200353Y2644444D01*
X1206550Y2631287D01*
X1214323Y2618994D01*
X1223619Y2607767D01*
X1234236Y2597810D01*
X1238199Y2593848D01*
X1239469Y2589834D01*
X1239062Y2585618D01*
X1236929Y2581960D01*
X1233525Y2579471D01*
X1229410Y2578608D01*
X1132840Y2578608D01*
X1128674Y2579471D01*
X1125270Y2581960D01*
X1123188Y2585618D01*
X1122730Y2589834D01*
X1124051Y2593848D01*
X1127963Y2597810D01*
X1138580Y2607767D01*
X1147876Y2618994D01*
X1155649Y2631236D01*
X1157782Y2635758D01*
X1105458Y2635758D01*
X1105458Y2588768D01*
X1104696Y2584856D01*
X1102461Y2581605D01*
X1099159Y2579370D01*
X1095298Y2578608D01*
X1012901Y2578608D01*
X1009040Y2579370D01*
X1005738Y2581605D01*
X1003503Y2584856D01*
X1002741Y2588768D01*
X1002741Y2635758D01*
X950417Y2635758D01*
X952550Y2631236D01*
X960323Y2618994D01*
X969619Y2607767D01*
X980236Y2597810D01*
X984148Y2593848D01*
X985469Y2589834D01*
X985012Y2585618D01*
X982929Y2581960D01*
X979525Y2579471D01*
X975360Y2578608D01*
G37*

%LPC*%
G36*
X950417Y2738424D02*
G01*
X1002741Y2738424D01*
X1002741Y2790850D01*
X992022Y2784957D01*
X980236Y2776372D01*
X969619Y2766415D01*
X960323Y2755188D01*
X952550Y2742946D01*
G37*
G36*
X1105458Y2738424D02*
G01*
X1157782Y2738424D01*
X1155649Y2742946D01*
X1147876Y2755188D01*
X1138580Y2766415D01*
X1127963Y2776372D01*
X1116177Y2784957D01*
X1105458Y2790850D01*
G37*

%LPD*%
G36*
X2656789Y2578608D02*
G01*
X2652674Y2579471D01*
X2649270Y2581960D01*
X2647137Y2585618D01*
X2646730Y2589834D01*
X2648000Y2593848D01*
X2651963Y2597810D01*
X2662580Y2607767D01*
X2671876Y2618994D01*
X2679649Y2631287D01*
X2685846Y2644444D01*
X2690368Y2658262D01*
X2693060Y2672588D01*
X2693974Y2687116D01*
X2693060Y2701645D01*
X2690368Y2715920D01*
X2685846Y2729738D01*
X2679649Y2742946D01*
X2671876Y2755239D01*
X2662580Y2766415D01*
X2651963Y2776372D01*
X2640177Y2784957D01*
X2627426Y2791968D01*
X2623921Y2793339D01*
X2620568Y2795524D01*
X2618282Y2798876D01*
X2617520Y2802788D01*
X2617520Y3020618D01*
X2616708Y3028797D01*
X2614472Y3036163D01*
X2610815Y3042970D01*
X2605633Y3049320D01*
X2431237Y3223717D01*
X2429205Y3226612D01*
X2428290Y3230016D01*
X2427681Y3236823D01*
X2425141Y3246323D01*
X2420975Y3255213D01*
X2420061Y3259328D01*
X2420874Y3263493D01*
X2423312Y3266998D01*
X2426970Y3269132D01*
X2431186Y3269640D01*
X2435250Y3269234D01*
X4497882Y3269234D01*
X4502099Y3268319D01*
X4505553Y3265779D01*
X4507636Y3262020D01*
X4507992Y3257753D01*
X4506518Y3253689D01*
X4503572Y3250590D01*
X4495596Y3245307D01*
X4485335Y3236264D01*
X4476292Y3226003D01*
X4468672Y3214624D01*
X4462627Y3202330D01*
X4458258Y3189376D01*
X4455566Y3175965D01*
X4454652Y3162300D01*
X4455566Y3148634D01*
X4458258Y3135223D01*
X4462627Y3122269D01*
X4468672Y3109976D01*
X4476292Y3098596D01*
X4485335Y3088335D01*
X4495596Y3079292D01*
X4506976Y3071672D01*
X4519269Y3065627D01*
X4532223Y3061258D01*
X4545634Y3058566D01*
X4559300Y3057652D01*
X4572965Y3058566D01*
X4586376Y3061258D01*
X4599330Y3065627D01*
X4611624Y3071672D01*
X4623003Y3079292D01*
X4633264Y3088335D01*
X4642307Y3098596D01*
X4649927Y3109976D01*
X4655972Y3122269D01*
X4660341Y3135223D01*
X4663033Y3148634D01*
X4663948Y3162300D01*
X4663033Y3175965D01*
X4660341Y3189376D01*
X4655972Y3202330D01*
X4649927Y3214624D01*
X4642307Y3226003D01*
X4633264Y3236264D01*
X4623003Y3245307D01*
X4615027Y3250590D01*
X4612081Y3253689D01*
X4610608Y3257753D01*
X4610963Y3262020D01*
X4613046Y3265779D01*
X4616500Y3268319D01*
X4620717Y3269234D01*
X4762144Y3269234D01*
X4770323Y3270046D01*
X4777689Y3272282D01*
X4784496Y3275888D01*
X4790846Y3281121D01*
X4841290Y3331565D01*
X4844592Y3333800D01*
X4848504Y3334562D01*
X4874564Y3334562D01*
X4876850Y3337356D01*
X4879949Y3339236D01*
X4883505Y3339846D01*
X4920894Y3339846D01*
X4924450Y3339236D01*
X4927549Y3337356D01*
X4929835Y3334562D01*
X4974336Y3334562D01*
X4976622Y3337356D01*
X4979720Y3339236D01*
X4983276Y3339846D01*
X5106568Y3339846D01*
X5110480Y3339084D01*
X5113782Y3336899D01*
X5226964Y3223666D01*
X5233314Y3218484D01*
X5240121Y3214827D01*
X5247487Y3212592D01*
X5255666Y3211779D01*
X6001461Y3211779D01*
X6005068Y3211118D01*
X6008217Y3209188D01*
X6010503Y3206292D01*
X6011621Y3202228D01*
X6013500Y3196793D01*
X6016599Y3191865D01*
X6020714Y3187801D01*
X6025591Y3184702D01*
X6031077Y3182823D01*
X6037376Y3182112D01*
X6097320Y3182112D01*
X6101486Y3181197D01*
X6104940Y3178606D01*
X6107023Y3174898D01*
X6109360Y3167227D01*
X6113018Y3160420D01*
X6118199Y3154070D01*
X6391503Y2880766D01*
X6397853Y2875584D01*
X6404660Y2871927D01*
X6412026Y2869692D01*
X6420205Y2868879D01*
X6857492Y2868879D01*
X6861403Y2868117D01*
X6864654Y2865932D01*
X6866890Y2862630D01*
X6867652Y2858719D01*
X6867652Y2830118D01*
X6868363Y2823819D01*
X6870293Y2818333D01*
X6873341Y2813456D01*
X6877456Y2809341D01*
X6882333Y2806293D01*
X6887819Y2804363D01*
X6894118Y2803652D01*
X7050481Y2803652D01*
X7056780Y2804363D01*
X7062266Y2806293D01*
X7067143Y2809341D01*
X7071258Y2813456D01*
X7074306Y2818333D01*
X7076236Y2823819D01*
X7076948Y2830118D01*
X7076948Y2986481D01*
X7076236Y2992780D01*
X7074306Y2998266D01*
X7071258Y3003143D01*
X7067143Y3007258D01*
X7062266Y3010306D01*
X7056780Y3012236D01*
X7050481Y3012948D01*
X6894118Y3012948D01*
X6887819Y3012236D01*
X6882333Y3010306D01*
X6877456Y3007258D01*
X6873341Y3003143D01*
X6870293Y2998266D01*
X6868363Y2992780D01*
X6867652Y2986481D01*
X6867652Y2957880D01*
X6866890Y2953969D01*
X6864654Y2950667D01*
X6861403Y2948482D01*
X6857492Y2947720D01*
X6440220Y2947720D01*
X6436360Y2948482D01*
X6433058Y2950667D01*
X6218986Y3164738D01*
X6216802Y3168040D01*
X6215989Y3171952D01*
X6216802Y3175812D01*
X6218986Y3179114D01*
X6222288Y3181299D01*
X6226149Y3182112D01*
X6256223Y3182112D01*
X6262522Y3182823D01*
X6268008Y3184702D01*
X6272885Y3187801D01*
X6277000Y3191865D01*
X6280099Y3196793D01*
X6281978Y3202228D01*
X6282690Y3208578D01*
X6282690Y3293821D01*
X6281978Y3300171D01*
X6280099Y3305606D01*
X6277000Y3310534D01*
X6272885Y3314598D01*
X6268008Y3317697D01*
X6262522Y3319576D01*
X6256223Y3320287D01*
X6207658Y3320287D01*
X6203746Y3321100D01*
X6200444Y3323285D01*
X6164173Y3359556D01*
X6161989Y3362858D01*
X6161227Y3366719D01*
X6161989Y3370630D01*
X6164173Y3373932D01*
X6167475Y3376117D01*
X6171387Y3376879D01*
X6869023Y3376879D01*
X6872681Y3376218D01*
X6875881Y3374237D01*
X6878116Y3371240D01*
X6881672Y3363976D01*
X6889292Y3352596D01*
X6898335Y3342335D01*
X6908596Y3333292D01*
X6919975Y3325672D01*
X6932269Y3319627D01*
X6945223Y3315258D01*
X6958634Y3312566D01*
X6972300Y3311651D01*
X6985965Y3312566D01*
X6999376Y3315258D01*
X7012330Y3319627D01*
X7024624Y3325672D01*
X7036003Y3333292D01*
X7046264Y3342335D01*
X7055307Y3352596D01*
X7062927Y3363976D01*
X7068972Y3376269D01*
X7073341Y3389223D01*
X7076033Y3402634D01*
X7076948Y3416300D01*
X7076033Y3429965D01*
X7073341Y3443376D01*
X7068972Y3456330D01*
X7062927Y3468624D01*
X7055307Y3480003D01*
X7046264Y3490264D01*
X7036003Y3499307D01*
X7024624Y3506927D01*
X7012330Y3512972D01*
X6999376Y3517341D01*
X6985965Y3520033D01*
X6972300Y3520948D01*
X6958634Y3520033D01*
X6945223Y3517341D01*
X6932269Y3512972D01*
X6919975Y3506927D01*
X6908596Y3499307D01*
X6898335Y3490264D01*
X6889292Y3480003D01*
X6881672Y3468624D01*
X6878116Y3461359D01*
X6875881Y3458362D01*
X6872681Y3456381D01*
X6869023Y3455720D01*
X5654548Y3455720D01*
X5650687Y3456482D01*
X5647385Y3458667D01*
X5645200Y3461969D01*
X5644388Y3465880D01*
X5644388Y3545840D01*
X5643676Y3552139D01*
X5641797Y3557625D01*
X5638698Y3562502D01*
X5634634Y3566617D01*
X5629706Y3569665D01*
X5623661Y3571798D01*
X5620105Y3573932D01*
X5617667Y3577336D01*
X5616854Y3581400D01*
X5617667Y3585464D01*
X5620105Y3588867D01*
X5623661Y3591001D01*
X5629706Y3593134D01*
X5634634Y3596182D01*
X5638698Y3600297D01*
X5641797Y3605174D01*
X5643676Y3610660D01*
X5644388Y3616960D01*
X5644388Y3696462D01*
X5643676Y3702812D01*
X5641797Y3708247D01*
X5638698Y3713175D01*
X5634634Y3717239D01*
X5629706Y3720337D01*
X5624271Y3722268D01*
X5619800Y3723335D01*
X5617006Y3725316D01*
X5615025Y3728161D01*
X5613908Y3733647D01*
X5611672Y3741013D01*
X5608015Y3747820D01*
X5602833Y3754170D01*
X5566918Y3790086D01*
X5564682Y3793540D01*
X5563920Y3797554D01*
X5564886Y3801567D01*
X5567324Y3804869D01*
X5570880Y3806901D01*
X5574995Y3807409D01*
X5579516Y3807002D01*
X5582920Y3806088D01*
X5585815Y3804056D01*
X5709869Y3680002D01*
X5716219Y3674821D01*
X5723026Y3671163D01*
X5730392Y3668928D01*
X5738571Y3668115D01*
X5878372Y3668115D01*
X5882436Y3667302D01*
X5885789Y3664864D01*
X5887923Y3661308D01*
X5889802Y3655974D01*
X5892901Y3651097D01*
X5896965Y3646982D01*
X5901893Y3643934D01*
X5907938Y3641801D01*
X5911494Y3639667D01*
X5913932Y3636264D01*
X5914745Y3632200D01*
X5913932Y3628136D01*
X5911494Y3624732D01*
X5907938Y3622598D01*
X5901893Y3620465D01*
X5896965Y3617417D01*
X5892901Y3613302D01*
X5889802Y3608425D01*
X5887923Y3602939D01*
X5887212Y3596640D01*
X5887212Y3517137D01*
X5887923Y3510787D01*
X5889802Y3505352D01*
X5892901Y3500424D01*
X5896965Y3496360D01*
X5901893Y3493262D01*
X5907328Y3491331D01*
X5913678Y3490620D01*
X5998921Y3490620D01*
X6005271Y3491331D01*
X6010706Y3493262D01*
X6015634Y3496360D01*
X6019698Y3500424D01*
X6022797Y3505352D01*
X6024676Y3510787D01*
X6025388Y3517137D01*
X6025388Y3576574D01*
X6026200Y3580434D01*
X6028385Y3583736D01*
X6031687Y3585972D01*
X6035548Y3586734D01*
X6906361Y3586734D01*
X6909308Y3586276D01*
X6912051Y3585006D01*
X6919975Y3579672D01*
X6932269Y3573627D01*
X6945223Y3569258D01*
X6958634Y3566566D01*
X6972300Y3565651D01*
X6985965Y3566566D01*
X6999376Y3569258D01*
X7012330Y3573627D01*
X7024624Y3579672D01*
X7036003Y3587292D01*
X7046264Y3596335D01*
X7055307Y3606596D01*
X7062927Y3617976D01*
X7068972Y3630269D01*
X7073341Y3643223D01*
X7076033Y3656634D01*
X7076948Y3670300D01*
X7076033Y3683965D01*
X7073341Y3697376D01*
X7068972Y3710330D01*
X7062927Y3722624D01*
X7055307Y3734003D01*
X7046264Y3744264D01*
X7036003Y3753307D01*
X7024624Y3760927D01*
X7012330Y3766972D01*
X6999376Y3771341D01*
X6985965Y3774033D01*
X6972300Y3774948D01*
X6958634Y3774033D01*
X6945223Y3771341D01*
X6932269Y3766972D01*
X6919975Y3760927D01*
X6908596Y3753307D01*
X6898335Y3744264D01*
X6889292Y3734003D01*
X6881672Y3722624D01*
X6875627Y3710330D01*
X6871258Y3697376D01*
X6868566Y3683965D01*
X6868007Y3675024D01*
X6867042Y3671366D01*
X6864807Y3668268D01*
X6861556Y3666236D01*
X6857847Y3665524D01*
X6035548Y3665524D01*
X6031687Y3666286D01*
X6028385Y3668522D01*
X6026200Y3671824D01*
X6025388Y3675684D01*
X6025388Y3747262D01*
X6024676Y3753612D01*
X6022797Y3759047D01*
X6019698Y3763975D01*
X6015634Y3768039D01*
X6010706Y3771137D01*
X6005271Y3773068D01*
X5998921Y3773779D01*
X5913678Y3773779D01*
X5907328Y3773068D01*
X5901893Y3771137D01*
X5896965Y3768039D01*
X5892901Y3763975D01*
X5889802Y3759047D01*
X5887974Y3753764D01*
X5885789Y3750208D01*
X5882436Y3747770D01*
X5878372Y3746957D01*
X5758586Y3746957D01*
X5754725Y3747719D01*
X5751423Y3749903D01*
X5711139Y3790187D01*
X5709005Y3793337D01*
X5708142Y3797096D01*
X5708751Y3800856D01*
X5710732Y3804107D01*
X5713780Y3806444D01*
X5719165Y3807663D01*
X5728665Y3810203D01*
X5737555Y3814368D01*
X5745581Y3819956D01*
X5752541Y3826916D01*
X5758180Y3834993D01*
X5762345Y3843883D01*
X5764885Y3853383D01*
X5765749Y3863136D01*
X5764885Y3872941D01*
X5762345Y3882440D01*
X5758180Y3891330D01*
X5752541Y3899408D01*
X5745581Y3906367D01*
X5741924Y3908907D01*
X5739028Y3912006D01*
X5737656Y3916070D01*
X5738063Y3920286D01*
X5740196Y3923995D01*
X5743600Y3926484D01*
X5747766Y3927398D01*
X6857949Y3927398D01*
X6861708Y3926687D01*
X6864908Y3924655D01*
X6867144Y3921556D01*
X6868109Y3917899D01*
X6868566Y3910634D01*
X6871258Y3897223D01*
X6875627Y3884269D01*
X6881672Y3871976D01*
X6889292Y3860596D01*
X6898335Y3850335D01*
X6908596Y3841292D01*
X6919975Y3833672D01*
X6932269Y3827627D01*
X6945223Y3823258D01*
X6958634Y3820566D01*
X6972300Y3819651D01*
X6985965Y3820566D01*
X6999376Y3823258D01*
X7012330Y3827627D01*
X7024624Y3833672D01*
X7036003Y3841292D01*
X7046264Y3850335D01*
X7055307Y3860596D01*
X7062927Y3871976D01*
X7068972Y3884269D01*
X7073341Y3897223D01*
X7076033Y3910634D01*
X7076948Y3924300D01*
X7076033Y3937965D01*
X7073341Y3951376D01*
X7068972Y3964330D01*
X7062927Y3976624D01*
X7055307Y3988003D01*
X7046264Y3998264D01*
X7036003Y4007307D01*
X7024624Y4014927D01*
X7012330Y4020972D01*
X6999376Y4025341D01*
X6985965Y4028033D01*
X6972300Y4028948D01*
X6958634Y4028033D01*
X6945223Y4025341D01*
X6932269Y4020972D01*
X6919975Y4014927D01*
X6909511Y4007916D01*
X6906818Y4006646D01*
X6903872Y4006189D01*
X5441848Y4006189D01*
X5433669Y4005376D01*
X5426303Y4003141D01*
X5419496Y3999534D01*
X5413146Y3994302D01*
X5248249Y3829405D01*
X5244947Y3827221D01*
X5241086Y3826459D01*
X5237175Y3827221D01*
X5233873Y3829405D01*
X5231688Y3832707D01*
X5230926Y3836619D01*
X5230926Y3877259D01*
X5230114Y3885437D01*
X5227878Y3892804D01*
X5224221Y3899611D01*
X5219039Y3905961D01*
X5173167Y3951833D01*
X5166817Y3957015D01*
X5160010Y3960672D01*
X5152644Y3962908D01*
X5144465Y3963720D01*
X4662576Y3963720D01*
X4658918Y3964381D01*
X4655718Y3966362D01*
X4653483Y3969359D01*
X4649927Y3976624D01*
X4642307Y3988003D01*
X4633264Y3998264D01*
X4623003Y4007307D01*
X4611624Y4014927D01*
X4599330Y4020972D01*
X4586376Y4025341D01*
X4572965Y4028033D01*
X4559300Y4028948D01*
X4545634Y4028033D01*
X4532223Y4025341D01*
X4519269Y4020972D01*
X4506976Y4014927D01*
X4495596Y4007307D01*
X4485335Y3998264D01*
X4476292Y3988003D01*
X4468672Y3976624D01*
X4462627Y3964330D01*
X4458258Y3951376D01*
X4455566Y3937965D01*
X4454652Y3924300D01*
X4455566Y3910634D01*
X4458258Y3897223D01*
X4462627Y3884269D01*
X4468825Y3871823D01*
X4470400Y3867759D01*
X4470146Y3863390D01*
X4468063Y3859580D01*
X4464608Y3856939D01*
X4460341Y3856024D01*
X2521153Y3856024D01*
X2517241Y3856786D01*
X2513939Y3858971D01*
X2179929Y4193032D01*
X2177796Y4196080D01*
X2176932Y4199737D01*
X2177440Y4203395D01*
X2182368Y4218279D01*
X2185060Y4232554D01*
X2185974Y4247083D01*
X2185060Y4261612D01*
X2182368Y4275937D01*
X2177846Y4289755D01*
X2171649Y4302912D01*
X2163876Y4315206D01*
X2154580Y4326432D01*
X2143963Y4336389D01*
X2132177Y4344924D01*
X2124405Y4349242D01*
X2121103Y4352137D01*
X2119325Y4356252D01*
X2119477Y4360672D01*
X2121458Y4364583D01*
X2124964Y4367326D01*
X2129282Y4368292D01*
X2264918Y4368292D01*
X2269236Y4367326D01*
X2272741Y4364583D01*
X2274722Y4360672D01*
X2274874Y4356252D01*
X2273096Y4352137D01*
X2269794Y4349242D01*
X2262022Y4344924D01*
X2250236Y4336389D01*
X2239619Y4326432D01*
X2230323Y4315206D01*
X2222550Y4302912D01*
X2216353Y4289755D01*
X2211832Y4275937D01*
X2209139Y4261612D01*
X2208225Y4247083D01*
X2209139Y4232554D01*
X2211832Y4218279D01*
X2216353Y4204462D01*
X2222550Y4191254D01*
X2230323Y4178960D01*
X2239619Y4167784D01*
X2250236Y4157827D01*
X2262022Y4149242D01*
X2274773Y4142232D01*
X2288286Y4136898D01*
X2302408Y4133291D01*
X2316835Y4131462D01*
X2331364Y4131462D01*
X2345791Y4133291D01*
X2359914Y4136898D01*
X2373426Y4142232D01*
X2386177Y4149242D01*
X2397963Y4157827D01*
X2408580Y4167784D01*
X2417876Y4178960D01*
X2425649Y4191254D01*
X2431846Y4204462D01*
X2436368Y4218279D01*
X2439060Y4232554D01*
X2439974Y4247083D01*
X2439060Y4261612D01*
X2436368Y4275937D01*
X2431846Y4289755D01*
X2425649Y4302912D01*
X2417876Y4315206D01*
X2408580Y4326432D01*
X2397963Y4336389D01*
X2386177Y4344924D01*
X2378405Y4349242D01*
X2375103Y4352137D01*
X2373325Y4356252D01*
X2373477Y4360672D01*
X2375458Y4364583D01*
X2378964Y4367326D01*
X2383282Y4368292D01*
X2518918Y4368292D01*
X2523236Y4367326D01*
X2526741Y4364583D01*
X2528722Y4360672D01*
X2528874Y4356252D01*
X2527096Y4352137D01*
X2523794Y4349242D01*
X2516022Y4344924D01*
X2504236Y4336389D01*
X2493619Y4326432D01*
X2484323Y4315206D01*
X2476550Y4302912D01*
X2470353Y4289755D01*
X2465832Y4275937D01*
X2463139Y4261612D01*
X2462225Y4247083D01*
X2463139Y4232554D01*
X2465832Y4218279D01*
X2470353Y4204462D01*
X2476550Y4191254D01*
X2484323Y4178960D01*
X2493619Y4167784D01*
X2504236Y4157827D01*
X2516022Y4149242D01*
X2528773Y4142232D01*
X2542286Y4136898D01*
X2556408Y4133291D01*
X2570835Y4131462D01*
X2585364Y4131462D01*
X2599791Y4133291D01*
X2613914Y4136898D01*
X2627426Y4142232D01*
X2640177Y4149242D01*
X2651963Y4157827D01*
X2662580Y4167784D01*
X2671876Y4178960D01*
X2679649Y4191254D01*
X2685846Y4204462D01*
X2690368Y4218279D01*
X2693060Y4232554D01*
X2693974Y4247083D01*
X2693060Y4261612D01*
X2690368Y4275937D01*
X2685846Y4289755D01*
X2679649Y4302912D01*
X2671876Y4315206D01*
X2662580Y4326432D01*
X2651963Y4336389D01*
X2640177Y4344924D01*
X2632405Y4349242D01*
X2629103Y4352137D01*
X2627325Y4356252D01*
X2627477Y4360672D01*
X2629458Y4364583D01*
X2632964Y4367326D01*
X2637282Y4368292D01*
X2772918Y4368292D01*
X2777236Y4367326D01*
X2780741Y4364583D01*
X2782722Y4360672D01*
X2782874Y4356252D01*
X2781096Y4352137D01*
X2777794Y4349242D01*
X2770022Y4344924D01*
X2758236Y4336389D01*
X2747619Y4326432D01*
X2738323Y4315206D01*
X2730550Y4302912D01*
X2724353Y4289755D01*
X2719832Y4275937D01*
X2717139Y4261612D01*
X2716225Y4247083D01*
X2717139Y4232554D01*
X2719832Y4218279D01*
X2724353Y4204462D01*
X2730550Y4191254D01*
X2738323Y4178960D01*
X2747619Y4167784D01*
X2758236Y4157827D01*
X2770022Y4149242D01*
X2782773Y4142232D01*
X2796286Y4136898D01*
X2810408Y4133291D01*
X2824835Y4131462D01*
X2839364Y4131462D01*
X2853791Y4133291D01*
X2867914Y4136898D01*
X2881426Y4142232D01*
X2894177Y4149242D01*
X2905963Y4157827D01*
X2916580Y4167784D01*
X2925876Y4178960D01*
X2933649Y4191254D01*
X2939846Y4204462D01*
X2944368Y4218279D01*
X2947060Y4232554D01*
X2947974Y4247083D01*
X2947060Y4261612D01*
X2944368Y4275937D01*
X2939846Y4289755D01*
X2933649Y4302912D01*
X2925876Y4315206D01*
X2916580Y4326432D01*
X2905963Y4336389D01*
X2894177Y4344924D01*
X2886405Y4349242D01*
X2883103Y4352137D01*
X2881325Y4356252D01*
X2881477Y4360672D01*
X2883458Y4364583D01*
X2886964Y4367326D01*
X2891282Y4368292D01*
X3026918Y4368292D01*
X3031236Y4367326D01*
X3034741Y4364583D01*
X3036722Y4360672D01*
X3036874Y4356252D01*
X3035096Y4352137D01*
X3031794Y4349242D01*
X3024022Y4344924D01*
X3012236Y4336389D01*
X3001619Y4326432D01*
X2992323Y4315206D01*
X2984550Y4302912D01*
X2978353Y4289755D01*
X2973832Y4275937D01*
X2971139Y4261612D01*
X2970225Y4247083D01*
X2971139Y4232554D01*
X2973832Y4218279D01*
X2978353Y4204462D01*
X2984550Y4191254D01*
X2992323Y4178960D01*
X3001619Y4167784D01*
X3012236Y4157827D01*
X3024022Y4149242D01*
X3036773Y4142232D01*
X3050286Y4136898D01*
X3064408Y4133291D01*
X3078835Y4131462D01*
X3093364Y4131462D01*
X3107791Y4133291D01*
X3121914Y4136898D01*
X3135426Y4142232D01*
X3148177Y4149242D01*
X3159963Y4157827D01*
X3170580Y4167784D01*
X3179876Y4178960D01*
X3187649Y4191254D01*
X3193846Y4204462D01*
X3198368Y4218279D01*
X3201060Y4232554D01*
X3201974Y4247083D01*
X3201060Y4261612D01*
X3198368Y4275937D01*
X3193846Y4289755D01*
X3187649Y4302912D01*
X3179876Y4315206D01*
X3170580Y4326432D01*
X3159963Y4336389D01*
X3148177Y4344924D01*
X3140405Y4349242D01*
X3137103Y4352137D01*
X3135325Y4356252D01*
X3135477Y4360672D01*
X3137458Y4364583D01*
X3140964Y4367326D01*
X3145282Y4368292D01*
X3280918Y4368292D01*
X3285236Y4367326D01*
X3288741Y4364583D01*
X3290722Y4360672D01*
X3290874Y4356252D01*
X3289096Y4352137D01*
X3285794Y4349242D01*
X3278022Y4344924D01*
X3266236Y4336389D01*
X3255619Y4326432D01*
X3246323Y4315206D01*
X3238550Y4302912D01*
X3232353Y4289755D01*
X3227832Y4275937D01*
X3225139Y4261612D01*
X3224225Y4247083D01*
X3225139Y4232554D01*
X3227832Y4218279D01*
X3232353Y4204462D01*
X3238550Y4191254D01*
X3246323Y4178960D01*
X3255619Y4167784D01*
X3266236Y4157827D01*
X3278022Y4149242D01*
X3290773Y4142232D01*
X3304286Y4136898D01*
X3318408Y4133291D01*
X3332835Y4131462D01*
X3347364Y4131462D01*
X3361791Y4133291D01*
X3375914Y4136898D01*
X3389426Y4142232D01*
X3402177Y4149242D01*
X3413963Y4157827D01*
X3424580Y4167784D01*
X3433876Y4178960D01*
X3441649Y4191254D01*
X3447846Y4204462D01*
X3452368Y4218279D01*
X3455060Y4232554D01*
X3455974Y4247083D01*
X3455060Y4261612D01*
X3452368Y4275937D01*
X3447846Y4289755D01*
X3441649Y4302912D01*
X3433876Y4315206D01*
X3424580Y4326432D01*
X3413963Y4336389D01*
X3402177Y4344924D01*
X3394405Y4349242D01*
X3391103Y4352137D01*
X3389325Y4356252D01*
X3389477Y4360672D01*
X3391458Y4364583D01*
X3394964Y4367326D01*
X3399282Y4368292D01*
X3534918Y4368292D01*
X3539236Y4367326D01*
X3542741Y4364583D01*
X3544722Y4360672D01*
X3544874Y4356252D01*
X3543096Y4352137D01*
X3539794Y4349242D01*
X3532022Y4344924D01*
X3520236Y4336389D01*
X3509619Y4326432D01*
X3500323Y4315206D01*
X3492550Y4302912D01*
X3486353Y4289755D01*
X3481832Y4275937D01*
X3479139Y4261612D01*
X3478225Y4247083D01*
X3479139Y4232554D01*
X3481832Y4218279D01*
X3486353Y4204462D01*
X3492550Y4191254D01*
X3500323Y4178960D01*
X3509619Y4167784D01*
X3520236Y4157827D01*
X3532022Y4149242D01*
X3544773Y4142232D01*
X3558286Y4136898D01*
X3572408Y4133291D01*
X3586835Y4131462D01*
X3601364Y4131462D01*
X3615791Y4133291D01*
X3629914Y4136898D01*
X3643426Y4142232D01*
X3656177Y4149242D01*
X3667963Y4157827D01*
X3678580Y4167784D01*
X3687876Y4178960D01*
X3695649Y4191254D01*
X3701846Y4204462D01*
X3706368Y4218279D01*
X3709060Y4232554D01*
X3709974Y4247083D01*
X3709060Y4261612D01*
X3706368Y4275937D01*
X3701846Y4289755D01*
X3695649Y4302912D01*
X3687876Y4315206D01*
X3678580Y4326432D01*
X3667963Y4336389D01*
X3656177Y4344924D01*
X3648405Y4349242D01*
X3645103Y4352137D01*
X3643325Y4356252D01*
X3643477Y4360672D01*
X3645458Y4364583D01*
X3648964Y4367326D01*
X3653282Y4368292D01*
X3788918Y4368292D01*
X3793236Y4367326D01*
X3796741Y4364583D01*
X3798722Y4360672D01*
X3798874Y4356252D01*
X3797096Y4352137D01*
X3793794Y4349242D01*
X3786022Y4344924D01*
X3774236Y4336389D01*
X3763619Y4326432D01*
X3754323Y4315206D01*
X3746550Y4302912D01*
X3740353Y4289755D01*
X3735832Y4275937D01*
X3733139Y4261612D01*
X3732225Y4247083D01*
X3733139Y4232554D01*
X3735832Y4218279D01*
X3740353Y4204462D01*
X3746550Y4191254D01*
X3754323Y4178960D01*
X3763619Y4167784D01*
X3774236Y4157827D01*
X3786022Y4149242D01*
X3798773Y4142232D01*
X3812286Y4136898D01*
X3826408Y4133291D01*
X3840835Y4131462D01*
X3855364Y4131462D01*
X3869791Y4133291D01*
X3883914Y4136898D01*
X3897426Y4142232D01*
X3910177Y4149242D01*
X3921963Y4157827D01*
X3932580Y4167784D01*
X3941876Y4178960D01*
X3949649Y4191254D01*
X3955846Y4204462D01*
X3960368Y4218279D01*
X3963060Y4232554D01*
X3963974Y4247083D01*
X3963060Y4261612D01*
X3960368Y4275937D01*
X3955846Y4289755D01*
X3949649Y4302912D01*
X3941876Y4315206D01*
X3932580Y4326432D01*
X3921963Y4336389D01*
X3910177Y4344924D01*
X3902405Y4349242D01*
X3899103Y4352137D01*
X3897325Y4356252D01*
X3897477Y4360672D01*
X3899458Y4364583D01*
X3902964Y4367326D01*
X3907282Y4368292D01*
X7097064Y4368292D01*
X7100925Y4367530D01*
X7104227Y4365294D01*
X7324394Y4145127D01*
X7326630Y4141825D01*
X7327392Y4137964D01*
X7327392Y2758135D01*
X7326630Y2754274D01*
X7324394Y2750972D01*
X7155027Y2581605D01*
X7151725Y2579370D01*
X7147864Y2578608D01*
X3926840Y2578608D01*
X3922674Y2579471D01*
X3919270Y2581960D01*
X3917137Y2585618D01*
X3916730Y2589834D01*
X3918000Y2593848D01*
X3921963Y2597810D01*
X3932580Y2607767D01*
X3941876Y2618994D01*
X3949649Y2631287D01*
X3951782Y2635758D01*
X3899458Y2635758D01*
X3899458Y2588768D01*
X3898696Y2584856D01*
X3896461Y2581605D01*
X3893159Y2579370D01*
X3889298Y2578608D01*
X3806901Y2578608D01*
X3803040Y2579370D01*
X3799738Y2581605D01*
X3797503Y2584856D01*
X3796741Y2588768D01*
X3796741Y2635758D01*
X3744417Y2635758D01*
X3746550Y2631287D01*
X3754323Y2618994D01*
X3763619Y2607767D01*
X3774236Y2597810D01*
X3778199Y2593848D01*
X3779469Y2589834D01*
X3779062Y2585618D01*
X3776929Y2581960D01*
X3773525Y2579471D01*
X3769360Y2578608D01*
X3672789Y2578608D01*
X3668674Y2579471D01*
X3665270Y2581960D01*
X3663137Y2585618D01*
X3662730Y2589834D01*
X3664000Y2593848D01*
X3667963Y2597810D01*
X3678580Y2607767D01*
X3687876Y2618994D01*
X3695649Y2631287D01*
X3701846Y2644444D01*
X3706368Y2658262D01*
X3709060Y2672588D01*
X3709974Y2687116D01*
X3709060Y2701645D01*
X3706368Y2715920D01*
X3701846Y2729738D01*
X3695649Y2742946D01*
X3687876Y2755239D01*
X3678580Y2766415D01*
X3667963Y2776372D01*
X3656177Y2784957D01*
X3643426Y2791968D01*
X3629914Y2797302D01*
X3615791Y2800959D01*
X3601364Y2802737D01*
X3586835Y2802737D01*
X3572408Y2800959D01*
X3558286Y2797302D01*
X3544773Y2791968D01*
X3532022Y2784957D01*
X3520236Y2776372D01*
X3509619Y2766415D01*
X3500323Y2755239D01*
X3492550Y2742946D01*
X3486353Y2729738D01*
X3481832Y2715920D01*
X3479139Y2701645D01*
X3478225Y2687116D01*
X3479139Y2672588D01*
X3481832Y2658262D01*
X3486353Y2644444D01*
X3492550Y2631287D01*
X3500323Y2618994D01*
X3509619Y2607767D01*
X3520236Y2597810D01*
X3524199Y2593848D01*
X3525469Y2589834D01*
X3525062Y2585618D01*
X3522929Y2581960D01*
X3519525Y2579471D01*
X3515410Y2578608D01*
X3418789Y2578608D01*
X3414674Y2579471D01*
X3411270Y2581960D01*
X3409137Y2585618D01*
X3408730Y2589834D01*
X3410000Y2593848D01*
X3413963Y2597810D01*
X3424580Y2607767D01*
X3433876Y2618994D01*
X3441649Y2631287D01*
X3447846Y2644444D01*
X3452368Y2658262D01*
X3455060Y2672588D01*
X3455974Y2687116D01*
X3455060Y2701645D01*
X3452368Y2715920D01*
X3447846Y2729738D01*
X3441649Y2742946D01*
X3433876Y2755239D01*
X3424580Y2766415D01*
X3413963Y2776372D01*
X3402177Y2784957D01*
X3389426Y2791968D01*
X3375914Y2797302D01*
X3361791Y2800959D01*
X3347364Y2802737D01*
X3332835Y2802737D01*
X3318408Y2800959D01*
X3304286Y2797302D01*
X3290773Y2791968D01*
X3278022Y2784957D01*
X3266236Y2776372D01*
X3255619Y2766415D01*
X3246323Y2755239D01*
X3238550Y2742946D01*
X3232353Y2729738D01*
X3227832Y2715920D01*
X3225139Y2701645D01*
X3224225Y2687116D01*
X3225139Y2672588D01*
X3227832Y2658262D01*
X3232353Y2644444D01*
X3238550Y2631287D01*
X3246323Y2618994D01*
X3255619Y2607767D01*
X3266236Y2597810D01*
X3270199Y2593848D01*
X3271469Y2589834D01*
X3271062Y2585618D01*
X3268929Y2581960D01*
X3265525Y2579471D01*
X3261410Y2578608D01*
X3164789Y2578608D01*
X3160674Y2579471D01*
X3157270Y2581960D01*
X3155137Y2585618D01*
X3154730Y2589834D01*
X3156000Y2593848D01*
X3159963Y2597810D01*
X3170580Y2607767D01*
X3179876Y2618994D01*
X3187649Y2631287D01*
X3193846Y2644444D01*
X3198368Y2658262D01*
X3201060Y2672588D01*
X3201974Y2687116D01*
X3201060Y2701645D01*
X3198368Y2715920D01*
X3193846Y2729738D01*
X3187649Y2742946D01*
X3179876Y2755239D01*
X3170580Y2766415D01*
X3159963Y2776372D01*
X3148177Y2784957D01*
X3135426Y2791968D01*
X3121914Y2797302D01*
X3107791Y2800959D01*
X3093364Y2802737D01*
X3078835Y2802737D01*
X3064408Y2800959D01*
X3050286Y2797302D01*
X3036773Y2791968D01*
X3024022Y2784957D01*
X3012236Y2776372D01*
X3001619Y2766415D01*
X2992323Y2755239D01*
X2984550Y2742946D01*
X2978353Y2729738D01*
X2973832Y2715920D01*
X2971139Y2701645D01*
X2970225Y2687116D01*
X2971139Y2672588D01*
X2973832Y2658262D01*
X2978353Y2644444D01*
X2984550Y2631287D01*
X2992323Y2618994D01*
X3001619Y2607767D01*
X3012236Y2597810D01*
X3016199Y2593848D01*
X3017469Y2589834D01*
X3017062Y2585618D01*
X3014929Y2581960D01*
X3011525Y2579471D01*
X3007410Y2578608D01*
X2910789Y2578608D01*
X2906674Y2579471D01*
X2903270Y2581960D01*
X2901137Y2585618D01*
X2900730Y2589834D01*
X2902000Y2593848D01*
X2905963Y2597810D01*
X2916580Y2607767D01*
X2925876Y2618994D01*
X2933649Y2631287D01*
X2939846Y2644444D01*
X2944368Y2658262D01*
X2947060Y2672588D01*
X2947974Y2687116D01*
X2947060Y2701645D01*
X2944368Y2715920D01*
X2939846Y2729738D01*
X2933649Y2742946D01*
X2925876Y2755239D01*
X2916580Y2766415D01*
X2905963Y2776372D01*
X2894177Y2784957D01*
X2881426Y2791968D01*
X2867914Y2797302D01*
X2853791Y2800959D01*
X2839364Y2802737D01*
X2824835Y2802737D01*
X2810408Y2800959D01*
X2796286Y2797302D01*
X2782773Y2791968D01*
X2770022Y2784957D01*
X2758236Y2776372D01*
X2747619Y2766415D01*
X2738323Y2755239D01*
X2730550Y2742946D01*
X2724353Y2729738D01*
X2719832Y2715920D01*
X2717139Y2701645D01*
X2716225Y2687116D01*
X2717139Y2672588D01*
X2719832Y2658262D01*
X2724353Y2644444D01*
X2730550Y2631287D01*
X2738323Y2618994D01*
X2747619Y2607767D01*
X2758236Y2597810D01*
X2762199Y2593848D01*
X2763469Y2589834D01*
X2763062Y2585618D01*
X2760929Y2581960D01*
X2757525Y2579471D01*
X2753410Y2578608D01*
G37*

%LPC*%
G36*
X6926580Y3068421D02*
G01*
X6926580Y3116580D01*
X6878421Y3116580D01*
X6881672Y3109976D01*
X6889292Y3098596D01*
X6898335Y3088335D01*
X6908596Y3079292D01*
X6919975Y3071672D01*
G37*
G36*
X4931054Y3242310D02*
G01*
X4946650Y3242310D01*
X4952949Y3243021D01*
X4958435Y3244900D01*
X4963312Y3247999D01*
X4967427Y3252114D01*
X4970475Y3256991D01*
X4972405Y3262477D01*
X4973116Y3268776D01*
X4973116Y3281832D01*
X4931054Y3281832D01*
G37*
G36*
X4857750Y3242310D02*
G01*
X4873345Y3242310D01*
X4873345Y3281832D01*
X4831283Y3281832D01*
X4831283Y3268776D01*
X4831994Y3262477D01*
X4833924Y3256991D01*
X4836972Y3252114D01*
X4841087Y3247999D01*
X4845964Y3244900D01*
X4851450Y3243021D01*
G37*
G36*
X6878421Y3208020D02*
G01*
X6926580Y3208020D01*
X6926580Y3256178D01*
X6919975Y3252927D01*
X6908596Y3245307D01*
X6898335Y3236264D01*
X6889292Y3226003D01*
X6881672Y3214624D01*
G37*
G36*
X7018020Y3208020D02*
G01*
X7066178Y3208020D01*
X7062927Y3214624D01*
X7055307Y3226003D01*
X7046264Y3236264D01*
X7036003Y3245307D01*
X7024624Y3252927D01*
X7018020Y3256178D01*
G37*
G36*
X7018020Y3068421D02*
G01*
X7024624Y3071672D01*
X7036003Y3079292D01*
X7046264Y3088335D01*
X7055307Y3098596D01*
X7062927Y3109976D01*
X7066178Y3116580D01*
X7018020Y3116580D01*
G37*
G36*
X4481118Y2803652D02*
G01*
X4637481Y2803652D01*
X4643780Y2804363D01*
X4649266Y2806293D01*
X4654143Y2809341D01*
X4658258Y2813456D01*
X4661306Y2818333D01*
X4663236Y2823819D01*
X4663948Y2830118D01*
X4663948Y2986481D01*
X4663236Y2992780D01*
X4661306Y2998266D01*
X4658258Y3003143D01*
X4654143Y3007258D01*
X4649266Y3010306D01*
X4643780Y3012236D01*
X4637481Y3012948D01*
X4481118Y3012948D01*
X4474819Y3012236D01*
X4469333Y3010306D01*
X4464456Y3007258D01*
X4460341Y3003143D01*
X4457293Y2998266D01*
X4455363Y2992780D01*
X4454652Y2986481D01*
X4454652Y2830118D01*
X4455363Y2823819D01*
X4457293Y2818333D01*
X4460341Y2813456D01*
X4464456Y2809341D01*
X4469333Y2806293D01*
X4474819Y2804363D01*
G37*
G36*
X3744417Y2738424D02*
G01*
X3796741Y2738424D01*
X3796741Y2790850D01*
X3786022Y2784957D01*
X3774236Y2776372D01*
X3763619Y2766415D01*
X3754323Y2755239D01*
X3746550Y2742946D01*
G37*
G36*
X3899458Y2738424D02*
G01*
X3951782Y2738424D01*
X3949649Y2742946D01*
X3941876Y2755239D01*
X3932580Y2766415D01*
X3921963Y2776372D01*
X3910177Y2784957D01*
X3899458Y2790850D01*
G37*

%LPD*%
D11*
X2578100Y2687091D02*
G01*
X2578100Y3021101D01*
X2372182Y3227019D01*
X2324100Y2687091D02*
G01*
X2325497Y2688488D01*
X2325497Y3165652D01*
X6216802Y3251200D02*
G01*
X6102146Y3365855D01*
X5221554Y3365855D01*
X5033111Y3554298D01*
X5033111Y3677056D01*
X5191506Y3835450D01*
X5191506Y3877741D01*
X5144947Y3924300D01*
X4559300Y3924300D01*
X6972300Y3416300D02*
G01*
X5595823Y3416300D01*
X5575300Y3436823D01*
X5575300Y3506063D02*
G01*
X5575300Y3436823D01*
X6972300Y3670300D02*
G01*
X6928129Y3626129D01*
X5956300Y3626129D01*
X5956300Y3556863D02*
G01*
X5956300Y3626129D01*
X5106263Y3606800D02*
G01*
X5175529Y3606800D01*
X6972300Y3924300D02*
G01*
X6929805Y3966794D01*
X5441365Y3966794D01*
X5175529Y3700957D01*
X5175529Y3606800D01*
X2070100Y4247108D02*
G01*
X2500604Y3816604D01*
X4581194Y3816604D01*
X4681524Y3716273D01*
X4681524Y3538524D01*
X4559300Y3416300D01*
X1816100Y4247108D02*
G01*
X2392908Y3670300D01*
X4559300Y3670300D01*
X6972300Y2908300D02*
G01*
X6419697Y2908300D01*
X6145733Y3182264D01*
X6145733Y3251200D01*
X4902200Y3448202D02*
G01*
X4902200Y3630879D01*
X5126100Y3854780D01*
X4902200Y3448202D02*
G01*
X4902200Y3379266D01*
X6111265Y3251200D02*
G01*
X6145733Y3251200D01*
X6111265Y3251200D02*
G01*
X6076797Y3251200D01*
X6076797Y3251200D02*
G01*
X5255183Y3251200D01*
X5127116Y3379266D01*
X4902200Y3379266D01*
X4902200Y3379266D02*
G01*
X4833264Y3379266D01*
X4762627Y3308629D01*
X2434742Y3308629D01*
X2414422Y3328949D01*
X2226259Y3328949D01*
X1308100Y4247108D01*
X5474792Y3844975D02*
G01*
X5474792Y3826484D01*
X5575300Y3725976D01*
X5575300Y3656736D02*
G01*
X5575300Y3725976D01*
X5256936Y3678936D02*
G01*
X5256936Y3719804D01*
X5461431Y3924300D01*
X5648223Y3924300D01*
X5709361Y3863162D01*
X5256936Y3606800D02*
G01*
X5256936Y3678936D01*
X5582488Y3863111D02*
G01*
X5738063Y3707536D01*
X5956300Y3707536D01*
X4842103Y3020390D02*
G01*
X4902200Y3080486D01*
X4902200Y3308197D01*
X3848100Y2687091D02*
G01*
X4181398Y3020390D01*
X4842103Y3020390D01*
X4842103Y3020390D02*
G01*
X4900777Y2961716D01*
X4900777Y2926511D01*
X6972300Y3162300D02*
G01*
X7079995Y3054604D01*
X7079995Y2807766D01*
X7072096Y2799867D01*
X5027422Y2799867D01*
X4900777Y2926511D01*
X3848100Y2687091D02*
G01*
X3285591Y3249599D01*
X2433675Y3249599D01*
X2396820Y3286455D01*
X1653463Y3286455D01*
X1054100Y2687091D01*
G36*
X4947201Y3408199D02*
G01*
X4947201Y3488199D01*
X4857198Y3488199D01*
X4857198Y3408199D01*
G37*
G36*
X4947201Y3268200D02*
G01*
X4947201Y3348200D01*
X4857198Y3348200D01*
X4857198Y3268200D01*
G37*
G36*
X6176799Y3207999D02*
G01*
X6256799Y3207999D01*
X6256799Y3294400D01*
X6176799Y3294400D01*
G37*
G36*
X6036800Y3207999D02*
G01*
X6116800Y3207999D01*
X6116800Y3294400D01*
X6036800Y3294400D01*
G37*
D19*
G01*
X5575300Y3506063D03*
G36*
X5618500Y3616401D02*
G01*
X5532099Y3616401D01*
X5532099Y3697048D01*
X5618500Y3697048D01*
G37*
G01*
X5956300Y3556863D03*
G36*
X5999500Y3667201D02*
G01*
X5913099Y3667201D01*
X5913099Y3747848D01*
X5999500Y3747848D01*
G37*
G36*
X5146598Y3563599D02*
G01*
X5146598Y3650000D01*
X5065951Y3650000D01*
X5065951Y3563599D01*
G37*
G36*
X5216601Y3563599D02*
G01*
X5216601Y3650000D01*
X5297248Y3650000D01*
X5297248Y3563599D01*
G37*
D14*
G01*
X4559300Y3924300D03*
G01*
X4559300Y3670300D03*
G01*
X4559300Y3416300D03*
G01*
X4559300Y3162300D03*
D15*
G01*
X4559300Y2908300D03*
D16*
G01*
X1054100Y2687091D03*
G01*
X1308100Y2687091D03*
G01*
X1562100Y2687091D03*
G01*
X1816100Y2687091D03*
G01*
X2070100Y2687091D03*
G01*
X2324100Y2687091D03*
G01*
X2578100Y2687091D03*
G01*
X2832100Y2687091D03*
G01*
X3086100Y2687091D03*
G01*
X3340100Y2687091D03*
G01*
X3594100Y2687091D03*
G01*
X3848100Y2687091D03*
G01*
X3848100Y4247108D03*
G01*
X3594100Y4247108D03*
G01*
X3340100Y4247108D03*
G01*
X3086100Y4247108D03*
G01*
X2832100Y4247108D03*
G01*
X2578100Y4247108D03*
G01*
X2324100Y4247108D03*
G01*
X2070100Y4247108D03*
G01*
X1816100Y4247108D03*
G01*
X1562100Y4247108D03*
G01*
X1308100Y4247108D03*
G01*
X1054100Y4247108D03*
D14*
G01*
X6972300Y3924302D03*
G01*
X6972300Y3670302D03*
G01*
X6972300Y3416302D03*
G01*
X6972300Y3162302D03*
D15*
G01*
X6972300Y2908302D03*
D13*
G01*
X4900777Y2926511D03*
G01*
X5582488Y3863111D03*
G01*
X5709361Y3863162D03*
G01*
X5474792Y3844975D03*
G01*
X5126100Y3854780D03*
G01*
X2325497Y3165652D03*
G01*
X2372182Y3227019D03*
M02*
