G04 Layer: BottomSilkLayer*
G04 EasyEDA v6.4.25, 2021-10-17T02:20:50+08:00*
G04 2ac7491e4d7b47ffaeae1aaf30646eaa,91c7be0e0535418db580a4ece6a21754,10*
G04 Gerber Generator version 0.2*
G04 Scale: 100 percent, Rotated: No, Reflected: No *
G04 Dimensions in millimeters *
G04 leading zeros omitted , absolute positions ,4 integer and 5 decimal *
%FSLAX45Y45*%
%MOMM*%

%ADD10C,0.2540*%
%ADD21C,0.1524*%
%ADD24C,0.1520*%

%LPD*%
D21*
X5093208Y3430778D02*
G01*
X5103622Y3425444D01*
X5114036Y3415029D01*
X5119115Y3404870D01*
X5119115Y3384042D01*
X5114036Y3373628D01*
X5103622Y3363213D01*
X5093208Y3357879D01*
X5077459Y3352800D01*
X5051552Y3352800D01*
X5036058Y3357879D01*
X5025643Y3363213D01*
X5015229Y3373628D01*
X5010150Y3384042D01*
X5010150Y3404870D01*
X5015229Y3415029D01*
X5025643Y3425444D01*
X5036058Y3430778D01*
X5098288Y3465068D02*
G01*
X5103622Y3475481D01*
X5119115Y3490976D01*
X5010150Y3490976D01*
X6148387Y3468357D02*
G01*
X6148387Y3359391D01*
X6148387Y3359391D02*
G01*
X6086157Y3359391D01*
X6051867Y3447529D02*
G01*
X6041453Y3452863D01*
X6025705Y3468357D01*
X6025705Y3359391D01*
X5358384Y3581400D02*
G01*
X5467350Y3581400D01*
X5358384Y3581400D02*
G01*
X5358384Y3534663D01*
X5363463Y3519170D01*
X5368797Y3513836D01*
X5379211Y3508755D01*
X5389625Y3508755D01*
X5400040Y3513836D01*
X5405120Y3519170D01*
X5410200Y3534663D01*
X5410200Y3581400D01*
X5410200Y3545078D02*
G01*
X5467350Y3508755D01*
X5379211Y3474465D02*
G01*
X5373877Y3464052D01*
X5358384Y3448304D01*
X5467350Y3448304D01*
X5739384Y3632200D02*
G01*
X5848350Y3632200D01*
X5739384Y3632200D02*
G01*
X5739384Y3585463D01*
X5744463Y3569970D01*
X5749797Y3564636D01*
X5760211Y3559555D01*
X5770625Y3559555D01*
X5781040Y3564636D01*
X5786120Y3569970D01*
X5791200Y3585463D01*
X5791200Y3632200D01*
X5791200Y3595878D02*
G01*
X5848350Y3559555D01*
X5765291Y3519931D02*
G01*
X5760211Y3519931D01*
X5749797Y3514852D01*
X5744463Y3509518D01*
X5739384Y3499104D01*
X5739384Y3478529D01*
X5744463Y3468115D01*
X5749797Y3462781D01*
X5760211Y3457702D01*
X5770625Y3457702D01*
X5781040Y3462781D01*
X5796534Y3473195D01*
X5848350Y3525265D01*
X5848350Y3452368D01*
X5181600Y3823715D02*
G01*
X5181600Y3714750D01*
X5181600Y3823715D02*
G01*
X5134863Y3823715D01*
X5119370Y3818636D01*
X5114036Y3813302D01*
X5108956Y3802887D01*
X5108956Y3792473D01*
X5114036Y3782060D01*
X5119370Y3776979D01*
X5134863Y3771900D01*
X5181600Y3771900D01*
X5145277Y3771900D02*
G01*
X5108956Y3714750D01*
X5064252Y3823715D02*
G01*
X5007102Y3823715D01*
X5038090Y3782060D01*
X5022595Y3782060D01*
X5012181Y3776979D01*
X5007102Y3771900D01*
X5001768Y3756152D01*
X5001768Y3745737D01*
X5007102Y3730244D01*
X5017515Y3719829D01*
X5033009Y3714750D01*
X5048504Y3714750D01*
X5064252Y3719829D01*
X5069331Y3724910D01*
X5074665Y3735323D01*
D10*
X4942177Y3517201D02*
G01*
X4862174Y3517201D01*
X4973162Y3406226D02*
G01*
X4973162Y3486223D01*
X4831196Y3406226D02*
G01*
X4831196Y3486223D01*
X4973744Y3348636D02*
G01*
X4973744Y3268637D01*
X4942761Y3237654D02*
G01*
X4862763Y3237654D01*
X4831783Y3348636D02*
G01*
X4831783Y3268637D01*
D24*
X6273967Y3186051D02*
G01*
X6197767Y3186051D01*
X6020965Y3186051D02*
G01*
X6097165Y3186051D01*
X6020965Y3318172D02*
G01*
X6097165Y3318172D01*
D21*
X6020965Y3318172D02*
G01*
X6005736Y3302929D01*
X6005736Y3201286D01*
X6020965Y3186051D01*
D24*
X6273967Y3318172D02*
G01*
X6197767Y3318172D01*
D21*
X6273967Y3186051D02*
G01*
X6289210Y3201286D01*
X6289210Y3302929D01*
X6273967Y3318172D01*
X5641360Y3538778D02*
G01*
X5641360Y3442891D01*
X5509239Y3442891D01*
X5509239Y3538778D01*
X5641360Y3624021D02*
G01*
X5641360Y3719908D01*
X5509239Y3719908D01*
X5509239Y3624021D01*
X6022360Y3589578D02*
G01*
X6022360Y3493691D01*
X5890239Y3493691D01*
X5890239Y3589578D01*
X6022360Y3674821D02*
G01*
X6022360Y3770708D01*
X5890239Y3770708D01*
X5890239Y3674821D01*
X5138978Y3540739D02*
G01*
X5043091Y3540739D01*
X5043091Y3672860D01*
X5138978Y3672860D01*
X5224221Y3540739D02*
G01*
X5320108Y3540739D01*
X5320108Y3672860D01*
X5224221Y3672860D01*
D10*
G75*
G01*
X4942761Y3237649D02*
G03*
X4973744Y3268632I0J30983D01*
G75*
G01*
X4831778Y3268632D02*
G03*
X4862764Y3237649I30983J0D01*
G75*
G01*
X4973163Y3486219D02*
G03*
X4942177Y3517201I-30983J0D01*
G75*
G01*
X4862180Y3517201D02*
G03*
X4831197Y3486219I0J-30982D01*
M02*
